Right_states
version=1
nRows=4
nColumns=140
inDegrees=yes

# SIMM Motion File Header:
name Right_states
datacolumns 140
datarows 4
otherdata 1
range 0.27872910 0.28146239
endheader
time	/jointset/sternoclavicular/sternoclavicular_r2/value	/jointset/sternoclavicular/sternoclavicular_r2/speed	/jointset/sternoclavicular/sternoclavicular_r3/value	/jointset/sternoclavicular/sternoclavicular_r3/speed	/jointset/unrotscap/unrotscap_r3/value	/jointset/unrotscap/unrotscap_r3/speed	/jointset/unrotscap/unrotscap_r2/value	/jointset/unrotscap/unrotscap_r2/speed	/jointset/acromioclavicular/acromioclavicular_r2/value	/jointset/acromioclavicular/acromioclavicular_r2/speed	/jointset/acromioclavicular/acromioclavicular_r3/value	/jointset/acromioclavicular/acromioclavicular_r3/speed	/jointset/acromioclavicular/acromioclavicular_r1/value	/jointset/acromioclavicular/acromioclavicular_r1/speed	/jointset/unrothum/unrothum_r1/value	/jointset/unrothum/unrothum_r1/speed	/jointset/unrothum/unrothum_r3/value	/jointset/unrothum/unrothum_r3/speed	/jointset/unrothum/unrothum_r2/value	/jointset/unrothum/unrothum_r2/speed	/jointset/shoulder0/elv_angle/value	/jointset/shoulder0/elv_angle/speed	/jointset/shoulder1/shoulder_elv/value	/jointset/shoulder1/shoulder_elv/speed	/jointset/shoulder1/shoulder1_r2/value	/jointset/shoulder1/shoulder1_r2/speed	/jointset/shoulder2/shoulder_rot/value	/jointset/shoulder2/shoulder_rot/speed	/jointset/elbow/elbow_flexion/value	/jointset/elbow/elbow_flexion/speed	/jointset/radioulnar/pro_sup/value	/jointset/radioulnar/pro_sup/speed	/jointset/radiocarpal/deviation/value	/jointset/radiocarpal/deviation/speed	/jointset/radiocarpal/flexion/value	/jointset/radiocarpal/flexion/speed	/jointset/wrist_hand/wrist_hand_r1/value	/jointset/wrist_hand/wrist_hand_r1/speed	/jointset/wrist_hand/wrist_hand_r3/value	/jointset/wrist_hand/wrist_hand_r3/speed	/forceset/DELT1/activation	/forceset/DELT1/fiber_length	/forceset/DELT2/activation	/forceset/DELT2/fiber_length	/forceset/DELT3/activation	/forceset/DELT3/fiber_length	/forceset/SUPSP/activation	/forceset/SUPSP/fiber_length	/forceset/INFSP/activation	/forceset/INFSP/fiber_length	/forceset/SUBSC/activation	/forceset/SUBSC/fiber_length	/forceset/TMIN/activation	/forceset/TMIN/fiber_length	/forceset/TMAJ/activation	/forceset/TMAJ/fiber_length	/forceset/PECM1/activation	/forceset/PECM2/activation	/forceset/PECM2/fiber_length	/forceset/PECM3/activation	/forceset/PECM3/fiber_length	/forceset/LAT1/activation	/forceset/LAT1/fiber_length	/forceset/LAT2/activation	/forceset/LAT2/fiber_length	/forceset/LAT3/activation	/forceset/LAT3/fiber_length	/forceset/CORB/activation	/forceset/CORB/fiber_length	/forceset/TRIlong/activation	/forceset/TRIlong/fiber_length	/forceset/TRIlat/activation	/forceset/TRIlat/fiber_length	/forceset/TRImed/activation	/forceset/TRImed/fiber_length	/forceset/ANC/activation	/forceset/ANC/fiber_length	/forceset/SUP/activation	/forceset/SUP/fiber_length	/forceset/BIClong/activation	/forceset/BIClong/fiber_length	/forceset/BICshort/activation	/forceset/BICshort/fiber_length	/forceset/BRA/activation	/forceset/BRA/fiber_length	/forceset/BRD/activation	/forceset/BRD/fiber_length	/forceset/ECRL/activation	/forceset/ECRL/fiber_length	/forceset/ECRB/activation	/forceset/ECRB/fiber_length	/forceset/ECU/activation	/forceset/ECU/fiber_length	/forceset/FCR/activation	/forceset/FCR/fiber_length	/forceset/FCU/activation	/forceset/FCU/fiber_length	/forceset/PL/activation	/forceset/PL/fiber_length	/forceset/PT/activation	/forceset/PT/fiber_length	/forceset/PQ/activation	/forceset/PQ/fiber_length	/forceset/FDSL/activation	/forceset/FDSL/fiber_length	/forceset/FDSR/activation	/forceset/FDSR/fiber_length	/forceset/FDSM/activation	/forceset/FDSM/fiber_length	/forceset/FDSI/activation	/forceset/FDSI/fiber_length	/forceset/FDPL/activation	/forceset/FDPL/fiber_length	/forceset/FDPR/activation	/forceset/FDPR/fiber_length	/forceset/FDPM/activation	/forceset/FDPM/fiber_length	/forceset/FDPI/activation	/forceset/FDPI/fiber_length	/forceset/EDCL/activation	/forceset/EDCL/fiber_length	/forceset/EDCR/activation	/forceset/EDCR/fiber_length	/forceset/EDCM/activation	/forceset/EDCM/fiber_length	/forceset/EDCI/activation	/forceset/EDCI/fiber_length	/forceset/EDM/activation	/forceset/EDM/fiber_length	/forceset/EIP/activation	/forceset/EIP/fiber_length	/forceset/EPL/activation	/forceset/EPL/fiber_length	/forceset/EPB/activation	/forceset/EPB/fiber_length	/forceset/FPL/activation	/forceset/FPL/fiber_length	/forceset/APL/activation	/forceset/APL/fiber_length
      0.27872910	     -8.54198438	    -13.50711097	      3.61798143	      5.72097471	     -3.61798143	     -5.72097471	      8.54198438	     13.50711097	     -1.72957808	     -2.73491522	     13.97784166	     22.10262275	      6.28294363	      9.93497681	     -6.28294363	     -9.93497681	    -13.97784166	    -22.10262275	      1.72957808	      2.73491522	    -36.70015511	     18.46038433	     35.29737702	     55.81438305	     36.70015511	    -18.46038433	    -26.76312745	    -49.44302760	    113.67556926	     37.20467178	     -6.28356768	    -56.90486126	     -0.07948579	     -0.25871188	     -0.05947513	     -0.94179088	     -6.47698621	    -22.04580554	     -1.70383704	    -26.98032118	      0.02000000	      0.13974858	      0.24902081	      0.15180029	      0.21004919	      0.09183692	      0.02870740	      0.05909475	      0.04743676	      0.07171895	      0.02000000	      0.08232500	      0.03485273	      0.05920357	      0.06467825	      0.11954505	      0.02000000	      0.02000000	      0.12715847	      0.02000000	      0.10280454	      0.06219816	      0.16665728	      0.04023822	      0.13075717	      0.02000000	      0.19972588	      0.02000000	      0.08904767	      0.28756157	      0.16714855	      0.02000000	      0.11242986	      0.02000000	      0.10734522	      0.02000000	      0.02598507	      0.05094226	      0.03318413	      0.03457167	      0.09870676	      0.02000000	      0.11956253	      0.13606741	      0.05869634	      0.07873564	      0.09494627	      0.06922212	      0.04941747	      0.07252362	      0.05884064	      0.07266520	      0.07153626	      0.02000000	      0.04603957	      0.02000000	      0.03162626	      0.02000000	      0.04514266	      0.02000000	      0.03850080	      0.02000000	      0.02738588	      0.02000000	      0.03131266	      0.02000000	      0.05545868	      0.02000000	      0.07428655	      0.02000000	      0.08640957	      0.02000000	      0.07594331	      0.02000000	      0.07974643	      0.02000000	      0.07594534	      0.02000000	      0.07526134	      0.02000000	      0.07886834	      0.05337750	      0.06659772	      0.03810542	      0.07818703	      0.02000000	      0.07112730	      0.02455549	      0.07941311	      0.02000000	      0.06459367	      0.02000000	      0.06093570	      0.02000000	      0.06634274	      0.02000000	      0.06037901	      0.02000000	      0.06958683
      0.27964019	     -8.55427084	    -13.46322797	      3.62318539	      5.70238794	     -3.62318539	     -5.70238794	      8.55427084	     13.46322797	     -1.73206584	     -2.72602980	     13.99794684	     22.03081395	      6.29198077	      9.90269925	     -6.29198077	     -9.90269925	    -13.99794684	    -22.03081395	      1.73206584	      2.72602980	    -36.68333672	     18.45881813	     35.34814740	     55.63304873	     36.68333672	    -18.45881813	    -26.80754347	    -48.12719372	    113.70942359	     37.10533945	     -6.33467189	    -55.20924109	     -0.07972822	     -0.27302168	     -0.06041214	     -1.10517175	     -6.49764774	    -23.27140544	     -1.73068034	    -31.66083838	      0.02000000	      0.13976208	      0.24902081	      0.14994050	      0.21004919	      0.09180152	      0.02870740	      0.05906864	      0.04743676	      0.07170849	      0.02000000	      0.08233001	      0.03485273	      0.05920359	      0.06467825	      0.11956002	      0.02000000	      0.02000000	      0.12719868	      0.02000000	      0.10285436	      0.06219816	      0.16666811	      0.04023822	      0.13077394	      0.02000000	      0.19975327	      0.02000000	      0.08908643	      0.28756157	      0.16715767	      0.02000000	      0.11244117	      0.02000000	      0.10735650	      0.02000000	      0.02599209	      0.05094226	      0.03317791	      0.03457167	      0.09866994	      0.02000000	      0.11956915	      0.13606741	      0.05868231	      0.07873564	      0.09490309	      0.06922212	      0.04939588	      0.07252362	      0.05883931	      0.07266520	      0.07154229	      0.02000000	      0.04603216	      0.02000000	      0.03162284	      0.02000000	      0.04513377	      0.02000000	      0.03849852	      0.02000000	      0.02739211	      0.02000000	      0.03130601	      0.02000000	      0.05545346	      0.02000000	      0.07428715	      0.02000000	      0.08641029	      0.02000000	      0.07594495	      0.02000000	      0.07974775	      0.02000000	      0.07594632	      0.02000000	      0.07526128	      0.02000000	      0.07886816	      0.05337750	      0.06659686	      0.03810542	      0.07818508	      0.02000000	      0.07112447	      0.02455549	      0.07941515	      0.02000000	      0.06459273	      0.02000000	      0.06093376	      0.02000000	      0.06634001	      0.02000000	      0.06037847	      0.02000000	      0.06958555
      0.28055129	     -8.56651633	    -13.41720800	      3.62837200	      5.68289605	     -3.62837200	     -5.68289605	      8.56651633	     13.41720800	     -1.73454530	     -2.71671169	     14.01798499	     21.95550828	      6.30098778	      9.86884987	     -6.30098778	     -9.86884987	    -14.01798499	    -21.95550828	      1.73454530	      2.71671169	    -36.66651926	     18.45832595	     35.39874848	     55.44288399	     36.66651926	    -18.45832595	    -26.85094559	    -47.21005386	    113.74317299	     36.97527637	     -6.38411176	    -53.31235753	     -0.07998230	     -0.28409046	     -0.06147132	     -1.21053703	     -6.51930700	    -24.22163907	     -1.76102350	    -34.67933150	      0.02000000	      0.13977537	      0.24902081	      0.14830028	      0.21004919	      0.09176651	      0.02870740	      0.05904304	      0.04743676	      0.07169853	      0.02000000	      0.08233467	      0.03485273	      0.05920402	      0.06467825	      0.11957488	      0.02000000	      0.02000000	      0.12723852	      0.02000000	      0.10290380	      0.06219816	      0.16667881	      0.04023822	      0.13079058	      0.02000000	      0.19978047	      0.02000000	      0.08912502	      0.28756157	      0.16716688	      0.02000000	      0.11245245	      0.02000000	      0.10736776	      0.02000000	      0.02599909	      0.05094226	      0.03317148	      0.03457167	      0.09863288	      0.02000000	      0.11957524	      0.13606741	      0.05866830	      0.07873564	      0.09486007	      0.06922212	      0.04937309	      0.07252362	      0.05883674	      0.07266520	      0.07154769	      0.02000000	      0.04602680	      0.02000000	      0.03162135	      0.02000000	      0.04512780	      0.02000000	      0.03849674	      0.02000000	      0.02739812	      0.02000000	      0.03130080	      0.02000000	      0.05545005	      0.02000000	      0.07428970	      0.02000000	      0.08641321	      0.02000000	      0.07594823	      0.02000000	      0.07975077	      0.02000000	      0.07594899	      0.02000000	      0.07526278	      0.02000000	      0.07886642	      0.05337750	      0.06659517	      0.03810542	      0.07818170	      0.02000000	      0.07112008	      0.02455549	      0.07941598	      0.02000000	      0.06458981	      0.02000000	      0.06093097	      0.02000000	      0.06633798	      0.02000000	      0.06038028	      0.02000000	      0.06958625
      0.28146239	     -8.57871900	    -13.36927589	      3.63354048	      5.66259427	     -3.63354048	     -5.66259427	      8.57871900	     13.36927589	     -1.73701609	     -2.70700642	     14.03795306	     21.87707365	      6.30996329	      9.83359404	     -6.30996329	     -9.83359404	    -14.03795306	    -21.87707365	      1.73701609	      2.70700642	    -36.64970178	     18.45884224	     35.44917263	     55.24481789	     36.64970178	    -18.45884224	    -26.89367681	    -46.64651680	    113.77679223	     36.82067746	     -6.43183426	    -51.46956469	     -0.08024467	     -0.29117102	     -0.06260172	     -1.26245626	     -6.54168063	    -24.83249524	     -1.79340713	    -36.16670790	      0.02000000	      0.13978850	      0.24902081	      0.14684033	      0.21004919	      0.09173183	      0.02870740	      0.05901783	      0.04743676	      0.07168894	      0.02000000	      0.08233908	      0.03485273	      0.05920474	      0.06467825	      0.11958967	      0.02000000	      0.02000000	      0.12727805	      0.02000000	      0.10295292	      0.06219816	      0.16668942	      0.04023822	      0.13080712	      0.02000000	      0.19980755	      0.02000000	      0.08916344	      0.28756157	      0.16717618	      0.02000000	      0.11246370	      0.02000000	      0.10737899	      0.02000000	      0.02600606	      0.05094226	      0.03316499	      0.03457167	      0.09859571	      0.02000000	      0.11958104	      0.13606741	      0.05865433	      0.07873564	      0.09481709	      0.06922212	      0.04934910	      0.07252362	      0.05883295	      0.07266520	      0.07155250	      0.02000000	      0.04602341	      0.02000000	      0.03162174	      0.02000000	      0.04512466	      0.02000000	      0.03849529	      0.02000000	      0.02740394	      0.02000000	      0.03129703	      0.02000000	      0.05544840	      0.02000000	      0.07429412	      0.02000000	      0.08641820	      0.02000000	      0.07595308	      0.02000000	      0.07975542	      0.02000000	      0.07595329	      0.02000000	      0.07526578	      0.02000000	      0.07886321	      0.05337750	      0.06659263	      0.03810542	      0.07817689	      0.02000000	      0.07111413	      0.02455549	      0.07941567	      0.02000000	      0.06458502	      0.02000000	      0.06092736	      0.02000000	      0.06633652	      0.02000000	      0.06038433	      0.02000000	      0.06958867
